<svg xmlns="http://www.w3.org/2000/svg" viewBox="0 0 64 64" xmlns:xlink="http://www.w3.org/1999/xlink"
width="64" height="64">
  <path data-name="layer2"
  d="M2.81 6h19.719a.5.5 0 0 1 .5.446C23.185 8.129 24.29 14 32 14s8.815-5.871 8.974-7.554a.5.5 0 0 1 .5-.446H61.19a.5.5 0 0 1 .445.729C59.848 10.088 52 24 32 24S4.152 10.088 2.365 6.729A.5.5 0 0 1 2.81 6zM11 10l-6.048.864M16 13l-6.5 2.889M21 17l-5.832 2.916M26 20l-2.966 2.966M52.952 10l6.048.864M47.952 13l6.499 2.889M42.952 17l5.831 2.916M37.952 20l2.965 2.966"
  fill="none" stroke="#b18fcf" stroke-linecap="round" stroke-miterlimit="10"
  stroke-width="2" stroke-linejoin="round"></path>
  <circle data-name="layer1" cx="32" cy="6" r="4" fill="none" stroke="#b18fcf"
  stroke-linecap="round" stroke-miterlimit="10" stroke-width="2" stroke-linejoin="round"></circle>
  <path data-name="layer1" fill="none" stroke="#b18fcf" stroke-linecap="round"
  stroke-miterlimit="10" stroke-width="2" d="M32 10v52m-3.182-3a5.647 5.647 0 0 0 3.114 2m5.499-10.977C38.27 52.305 35.957 55 31.932 55m-6.996-15.03c-1.783 2.726 1.109 6.375 7 7.03m6.996-21c4 2 4.527 9.952-7 11"
  stroke-linejoin="round"></path>
  <path data-name="layer1" d="M25 26c-4 2-4.527 9.952 7 11a13.552 13.552 0 0 1 5.017 1.29A5.156 5.156 0 0 1 39 39.97c1.783 2.726-1.109 6.375-7 7.03-8.542.949-6.51 8 0 8 6 0 4 5 0 6"
  fill="none" stroke="#b18fcf" stroke-linecap="round" stroke-miterlimit="10"
  stroke-width="2" stroke-linejoin="round"></path>
</svg>
