<svg xmlns="http://www.w3.org/2000/svg" xmlns:xlink="http://www.w3.org/1999/xlink" width="64px" height="64px" viewBox="0 0 64 64">
  <circle data-name="layer2"
  cx="26" cy="33" r="1" fill="none" stroke="#b18fcf" stroke-miterlimit="10"
  stroke-width="2" stroke-linejoin="round" stroke-linecap="round"></circle>
  <circle data-name="layer2" cx="26" cy="33" r="8" fill="none"
  stroke="#b18fcf" stroke-miterlimit="10" stroke-width="2" stroke-linejoin="round"
  stroke-linecap="round"></circle>
  <circle data-name="layer2" cx="26" cy="33" r="24" fill="none"
  stroke="#b18fcf" stroke-miterlimit="10" stroke-width="2" stroke-linejoin="round"
  stroke-linecap="round"></circle>
  <rect data-name="layer1" x="54" y="9" width="8" height="12" rx="2"
  ry="2" fill="none" stroke="#b18fcf" stroke-miterlimit="10" stroke-width="2"
  stroke-linejoin="round" stroke-linecap="round"></rect>
  <path data-name="layer1" d="M42.1 39.8L40 36.4a2 2 0 0 0-2.7-.7L27 41.9a2 2 0 0 0-.7 2.7l2 3.4a2 2 0 0 0 2.7.7l10.3-6.2a2 2 0 0 0 .8-2.7zm-1-1.7l16.2-9.4c.9-.6.7-1.8.8-2.9V21"
  fill="none" stroke="#b18fcf" stroke-miterlimit="10" stroke-width="2" stroke-linejoin="round"
  stroke-linecap="round"></path>
</svg>
