<svg width="3339" height="1280" viewBox="0 0 3339 1280" fill="none" xmlns="http://www.w3.org/2000/svg">
<rect x="8" y="8" width="3323" height="1264" rx="632" fill="url(#paint0_linear)" style="mix-blend-mode:darken"/>
<path d="M899.2 444.8C799.84 532.64 812.8 675.2 812.8 675.2C812.8 675.2 665.92 452 726.4 272C667.36 392.96 409.6 424.64 524.8 761.6C379.36 706.88 380.8 531.2 380.8 531.2C380.8 531.2 294.4 617.6 294.4 790.4C294.4 882.059 330.811 969.963 395.624 1034.78C460.436 1099.59 548.341 1136 640 1136C731.659 1136 819.563 1099.59 884.376 1034.78C949.189 969.963 985.6 882.059 985.6 790.4C985.6 614.72 860.32 616.16 899.2 444.8Z" fill="#FFEEEE" stroke="#BA7CF0" stroke-width="32" stroke-miterlimit="10" stroke-linecap="round" stroke-linejoin="round"/>
<path d="M1531.26 555.32C1555.83 555.32 1574.26 559.416 1586.55 567.608C1599.35 575.8 1607.8 587.576 1611.9 602.936C1615.99 617.784 1618.04 638.008 1618.04 663.608V934.712C1618.04 939.32 1617.02 942.392 1614.97 943.928C1612.92 945.464 1606.78 946.488 1596.54 947C1586.3 947 1572.73 947 1555.83 947V662.84C1555.83 642.872 1553.27 629.048 1548.15 621.368C1543.54 613.688 1533.56 609.848 1518.2 609.848C1499.26 609.848 1481.85 614.712 1465.98 624.44V934.712C1465.98 939.32 1464.95 942.392 1462.9 943.928C1461.37 945.464 1455.74 946.488 1446.01 947C1436.28 947 1422.71 947 1405.3 947H1404.54V661.304C1404.54 646.968 1403.77 636.472 1402.23 629.816C1400.7 622.648 1397.11 617.528 1391.48 614.456C1386.36 610.872 1377.91 609.08 1366.14 609.08C1347.7 609.08 1330.3 613.688 1313.91 622.904V934.712C1313.91 939.32 1312.89 942.392 1310.84 943.928C1308.79 945.464 1302.65 946.488 1292.41 947C1282.17 947 1268.6 947 1251.7 947V580.664C1289.08 563.768 1327.74 555.32 1367.67 555.32C1399.42 555.32 1422.71 563.256 1437.56 579.128C1450.36 571.96 1465.21 566.328 1482.1 562.232C1499.51 557.624 1515.9 555.32 1531.26 555.32ZM1678.29 757.304C1678.29 735.288 1678.8 720.952 1679.83 714.296C1681.36 707.128 1685.2 703.544 1691.35 703.544H1834.96C1834.96 725.048 1834.2 739.384 1832.66 746.552C1831.64 753.72 1828.31 757.304 1822.68 757.304H1678.29ZM2049.48 884.024C2083.27 889.144 2108.62 898.36 2125.51 911.672C2142.92 924.472 2151.63 944.952 2151.63 973.112C2151.63 1008.95 2139.08 1038.65 2113.99 1062.2C2088.91 1086.26 2052.3 1098.3 2004.17 1098.3C1957.07 1098.3 1924.81 1090.36 1907.4 1074.49C1889.99 1059.13 1881.29 1039.16 1881.29 1014.58C1881.29 997.176 1886.67 980.28 1897.42 963.896C1908.17 948.024 1922.51 933.944 1940.43 921.656C1908.17 912.952 1892.3 899.128 1892.81 880.184C1892.81 859.704 1908.94 836.664 1941.19 811.064C1909.45 790.584 1893.58 752.184 1893.58 695.864C1893.58 647.224 1904.84 611.64 1927.37 589.112C1950.41 566.584 1981.9 555.32 2021.83 555.32C2033.61 555.32 2046.41 557.368 2060.23 561.464H2151.63C2155.72 568.632 2157.77 578.36 2157.77 590.648C2157.77 606.52 2150.6 614.456 2136.27 614.456C2129.61 614.456 2120.39 613.176 2108.62 610.616C2128.07 630.072 2137.8 657.976 2137.8 694.328C2137.8 736.824 2127.82 769.848 2107.85 793.4C2087.88 816.952 2056.39 828.728 2013.39 828.728C2000.07 828.728 1988.55 827.704 1978.83 825.656C1965 839.48 1958.09 850.744 1958.09 859.448C1958.09 865.592 1964.49 870.2 1977.29 873.272C1990.09 875.832 2014.15 879.416 2049.48 884.024ZM2019.53 600.632C2001.1 600.632 1986.25 608.312 1974.99 623.672C1964.23 638.52 1958.86 662.072 1958.86 694.328C1958.86 724.024 1962.7 746.04 1970.38 760.376C1978.57 774.2 1994.19 781.112 2017.23 781.112C2037.19 781.112 2051.79 772.664 2061 755.768C2070.73 738.872 2075.59 713.528 2075.59 679.736C2075.59 652.088 2070.99 632.12 2061.77 619.832C2052.55 607.032 2038.47 600.632 2019.53 600.632ZM2009.55 1041.46C2035.15 1041.46 2054.6 1035.32 2067.91 1023.03C2081.74 1010.74 2088.65 996.92 2088.65 981.56C2088.65 969.784 2086.09 960.568 2080.97 953.912C2075.85 947.768 2067.15 943.16 2054.86 940.088C2042.57 936.504 2024.91 933.944 2001.87 932.408L1986.51 930.872C1974.73 940.088 1964.75 950.84 1956.55 963.128C1948.87 975.416 1945.03 987.704 1945.03 999.992C1945.03 1013.82 1949.64 1024.06 1958.86 1030.71C1968.07 1037.88 1984.97 1041.46 2009.55 1041.46ZM2307.19 954.68C2278.52 954.68 2255.73 949.816 2238.84 940.088C2221.94 930.36 2208.88 911.16 2199.67 882.488C2190.96 853.304 2186.61 810.808 2186.61 755C2186.61 621.88 2229.36 555.32 2314.87 555.32C2343.03 555.32 2365.56 561.208 2382.45 572.984C2399.35 584.248 2412.15 604.472 2420.85 633.656C2429.56 662.328 2433.91 702.264 2433.91 753.464C2433.91 823.096 2423.16 874.04 2401.65 906.296C2380.66 938.552 2349.17 954.68 2307.19 954.68ZM2308.72 902.456C2327.16 902.456 2341.24 891.704 2350.96 870.2C2361.2 848.696 2366.32 809.784 2366.32 753.464C2366.32 713.528 2364.28 683.064 2360.18 662.072C2356.6 641.08 2350.96 626.744 2343.28 619.064C2335.6 611.384 2325.36 607.544 2312.56 607.544C2293.62 607.544 2279.03 618.296 2268.79 639.8C2259.06 661.304 2254.2 700.216 2254.2 756.536C2254.2 797.496 2256.24 828.472 2260.34 849.464C2264.44 870.456 2270.32 884.536 2278 891.704C2285.68 898.872 2295.92 902.456 2308.72 902.456ZM2640.48 884.024C2674.27 889.144 2699.62 898.36 2716.51 911.672C2733.92 924.472 2742.63 944.952 2742.63 973.112C2742.63 1008.95 2730.08 1038.65 2704.99 1062.2C2679.91 1086.26 2643.3 1098.3 2595.17 1098.3C2548.07 1098.3 2515.81 1090.36 2498.4 1074.49C2480.99 1059.13 2472.29 1039.16 2472.29 1014.58C2472.29 997.176 2477.67 980.28 2488.42 963.896C2499.17 948.024 2513.51 933.944 2531.43 921.656C2499.17 912.952 2483.3 899.128 2483.81 880.184C2483.81 859.704 2499.94 836.664 2532.19 811.064C2500.45 790.584 2484.58 752.184 2484.58 695.864C2484.58 647.224 2495.84 611.64 2518.37 589.112C2541.41 566.584 2572.9 555.32 2612.83 555.32C2624.61 555.32 2637.41 557.368 2651.23 561.464H2742.63C2746.72 568.632 2748.77 578.36 2748.77 590.648C2748.77 606.52 2741.6 614.456 2727.27 614.456C2720.61 614.456 2711.39 613.176 2699.62 610.616C2719.07 630.072 2728.8 657.976 2728.8 694.328C2728.8 736.824 2718.82 769.848 2698.85 793.4C2678.88 816.952 2647.39 828.728 2604.39 828.728C2591.07 828.728 2579.55 827.704 2569.83 825.656C2556 839.48 2549.09 850.744 2549.09 859.448C2549.09 865.592 2555.49 870.2 2568.29 873.272C2581.09 875.832 2605.15 879.416 2640.48 884.024ZM2610.53 600.632C2592.1 600.632 2577.25 608.312 2565.99 623.672C2555.23 638.52 2549.86 662.072 2549.86 694.328C2549.86 724.024 2553.7 746.04 2561.38 760.376C2569.57 774.2 2585.19 781.112 2608.23 781.112C2628.19 781.112 2642.79 772.664 2652 755.768C2661.73 738.872 2666.59 713.528 2666.59 679.736C2666.59 652.088 2661.99 632.12 2652.77 619.832C2643.55 607.032 2629.47 600.632 2610.53 600.632ZM2600.55 1041.46C2626.15 1041.46 2645.6 1035.32 2658.91 1023.03C2672.74 1010.74 2679.65 996.92 2679.65 981.56C2679.65 969.784 2677.09 960.568 2671.97 953.912C2666.85 947.768 2658.15 943.16 2645.86 940.088C2633.57 936.504 2615.91 933.944 2592.87 932.408L2577.51 930.872C2565.73 940.088 2555.75 950.84 2547.55 963.128C2539.87 975.416 2536.03 987.704 2536.03 999.992C2536.03 1013.82 2540.64 1024.06 2549.86 1030.71C2559.07 1037.88 2575.97 1041.46 2600.55 1041.46ZM2898.19 954.68C2869.52 954.68 2846.73 949.816 2829.84 940.088C2812.94 930.36 2799.88 911.16 2790.67 882.488C2781.96 853.304 2777.61 810.808 2777.61 755C2777.61 621.88 2820.36 555.32 2905.87 555.32C2934.03 555.32 2956.56 561.208 2973.45 572.984C2990.35 584.248 3003.15 604.472 3011.85 633.656C3020.56 662.328 3024.91 702.264 3024.91 753.464C3024.91 823.096 3014.16 874.04 2992.65 906.296C2971.66 938.552 2940.17 954.68 2898.19 954.68ZM2899.72 902.456C2918.16 902.456 2932.24 891.704 2941.96 870.2C2952.2 848.696 2957.32 809.784 2957.32 753.464C2957.32 713.528 2955.28 683.064 2951.18 662.072C2947.6 641.08 2941.96 626.744 2934.28 619.064C2926.6 611.384 2916.36 607.544 2903.56 607.544C2884.62 607.544 2870.03 618.296 2859.79 639.8C2850.06 661.304 2845.2 700.216 2845.2 756.536C2845.2 797.496 2847.24 828.472 2851.34 849.464C2855.44 870.456 2861.32 884.536 2869 891.704C2876.68 898.872 2886.92 902.456 2899.72 902.456Z" fill="#FFEEEE"/>
<path d="M1216.38 1023.8H3045.64V1062.2H1216.38V1023.8Z" fill="#FFEEEE"/>
<rect x="8" y="8" width="3323" height="1264" rx="632" stroke="#BA7CF0" stroke-width="16"/>
<defs>
<linearGradient id="paint0_linear" x1="3.49126e-05" y1="1280" x2="1007.67" y2="-859.842" gradientUnits="userSpaceOnUse">
<stop offset="0.65625" stop-color="#0C0166"/>
<stop offset="1" stop-color="#BA7CF0"/>
</linearGradient>
</defs>
</svg>
