<svg viewBox="0 0 64 64" xmlns="http://www.w3.org/2000/svg" xmlns:xlink="http://www.w3.org/1999/xlink" width="64px" height="64px" viewBox="0 0 64 64">
  <path stroke-width="2"
  stroke-miterlimit="10" stroke="#b18fcf" fill="none" d="M38.043 46a16.833 16.833 0 0 0-6.02.811A16.859 16.859 0 0 0 26 46c-8.031 0-12 3.217-12 16 5.873-1.059 14.023-1.035 18.023 0 4-1.035 12.148-1.059 18.02 0 0-12.784-3.967-16-12-16z"
  data-name="layer2" stroke-linejoin="round" stroke-linecap="round"></path>
  <path stroke-width="2" stroke-miterlimit="10" stroke="#b18fcf"
  fill="none" d="M14.043 38v-2S14 29.715 22.32 28.128C27.715 27.1 28 25.779 28 24.712V23c-1.957-1.735-3-4.737-3-8v-5c0-5.55 3.469-8 7.051-8S39 4.451 39 10v5c0 3.271-1.031 6.265-3 8v1.7c0 1.067.344 2.609 5.77 3.432C50.043 29.382 50.047 36 50.047 36v2.028M8 37.999h48"
  data-name="layer1" stroke-linejoin="round" stroke-linecap="round"></path>
  <path d="M32.023 46.81v15.191" stroke-width="2" stroke-miterlimit="10"
  stroke="#b18fcf" fill="none" data-name="layer2" stroke-linejoin="round"
  stroke-linecap="round"></path>
</svg>
