<svg xmlns="http://www.w3.org/2000/svg" viewBox="0 0 64 64" xmlns:xlink="http://www.w3.org/1999/xlink"
width="64" height="64">
  <path data-name="layer2"
  d="M32.748 61.828a.249.249 0 0 0 .37-.107C33.853 60.01 37.775 51 39 51c2 0 5.938 2 9 2s2.488-7.083 3.445-9.973S53 38.445 53 37c3.828-.385 3.134-1.581 2.655-2.737S51 27.867 51 27c0-1 1-4.074 1-6 0-8.764-5-19-21.991-19C13.359 2 8 14.258 8 21s1.895 11.785 4 14 4 4.244 4 8a9.538 9.538 0 0 1-2 6z"
  fill="none" stroke="#b18fcf" stroke-linecap="round" stroke-miterlimit="10"
  stroke-width="2" stroke-linejoin="round"></path>
  <path data-name="layer1" d="M25 8c5.965-1.193 17.762-.476 20 10 .864 4.119 1.2 8.237-8 9s-13.288 1.22-14 3-1 6-3 6a1.789 1.789 0 0 1-2-2c0-1.856-1-4-2-6-.834-1.668-6-17 9-20z"
  fill="none" stroke="#b18fcf" stroke-linecap="round" stroke-miterlimit="10"
  stroke-width="2" stroke-linejoin="round"></path>
  <path data-name="layer1" d="M34 22c2-2 6-2 6.834 1.386a2.636 2.636 0 0 1-1.7 3.35M31 21c-3 1-3.831 4.262-2 6m7.91-18.194c1.257 3.141.378 5.821-1.91 7.194m7.4-3.4c.658 3.362-.4 5.4-3.4 5.4M30.292 7.625A4.3 4.3 0 0 1 32 13m-2 4c-1-2-4.373-2.034-6 0m-2.156-8c3.407.458 6.023 3.093 5.133 6.5M22 16c-3-.813-2.953-4.229-2.752-5.719M19 19a2.558 2.558 0 0 0-4.422 0M25 20c-2 0-4 3-1 5m-1.488-2.847c-2.7-.407-6.491 1.158-6.778 5"
  fill="none" stroke="#b18fcf" stroke-linecap="round" stroke-miterlimit="10"
  stroke-width="2" stroke-linejoin="round"></path>
</svg>
