<svg xmlns="http://www.w3.org/2000/svg" xmlns:xlink="http://www.w3.org/1999/xlink" width="64px" height="64px" viewBox="0 0 64 64">
  <path data-name="layer2"
  d="M31.942 39.884l5.572 5.572a3.98 3.98 0 0 1 1.1 3.339 11.542 11.542 0 0 0-.094 1.466 11.658 11.658 0 0 0 13.509 11.592l-5-7.92a1.3 1.3 0 0 1 .1-1.532l2.4-2.875a1.3 1.3 0 0 1 .644-.419l3.2-.913a1.3 1.3 0 0 1 1.49.606l4.833 8.439a11.671 11.671 0 0 0 2.291-7.731A11.734 11.734 0 0 0 48.71 38.625a3.945 3.945 0 0 1-3.337-1.079L39.826 32m-7.884-7.884l-5.469-5.469a3.964 3.964 0 0 1-1.1-3.349A11.737 11.737 0 0 0 13.739 2c-.338 0-.67.023-1 .051l4.406 6.973a1.3 1.3 0 0 1-.1 1.532l-2.4 2.875a1.3 1.3 0 0 1-.645.419l-3.2.913a1.3 1.3 0 0 1-1.49-.606L4.756 6.189a11.73 11.73 0 0 0 6.4 19 11.593 11.593 0 0 0 4.028.2 4.011 4.011 0 0 1 3.363 1.1L24.058 32"
  fill="none" stroke="#b18fcf" stroke-linecap="round" stroke-miterlimit="10"
  stroke-width="2" stroke-linejoin="round"></path>
  <path data-name="layer1" d="M61.949 12.739l-6.973 4.406a1.3 1.3 0 0 1-1.532-.1l-2.875-2.4A1.3 1.3 0 0 1 50.15 14l-.913-3.2a1.3 1.3 0 0 1 .606-1.49l7.967-4.563a11.738 11.738 0 0 0-19.2 10.428 4.011 4.011 0 0 1-1.1 3.363L18.544 37.514a3.98 3.98 0 0 1-3.339 1.1 11.542 11.542 0 0 0-1.466-.094A11.658 11.658 0 0 0 2.147 52.029l7.92-5a1.3 1.3 0 0 1 1.532.1l2.875 2.4a1.3 1.3 0 0 1 .419.644l.913 3.2a1.3 1.3 0 0 1-.606 1.49l-8.439 4.822a11.671 11.671 0 0 0 7.731 2.291A11.734 11.734 0 0 0 25.375 48.71a3.945 3.945 0 0 1 1.079-3.337l18.9-18.9a3.964 3.964 0 0 1 3.349-1.1A11.737 11.737 0 0 0 62 13.739c0-.339-.023-.669-.051-1z"
  fill="none" stroke="#b18fcf" stroke-linecap="round" stroke-miterlimit="10"
  stroke-width="2" stroke-linejoin="round"></path>
</svg>
